<svg id="visual" viewBox="0 0 960 540" width="960" height="540" xmlns="http://www.w3.org/2000/svg" xmlns:xlink="http://www.w3.org/1999/xlink" version="1.1"><rect x="0" y="0" width="960" height="540" fill="#ffffff"></rect><path d="M0 142L26.7 155.8C53.3 169.7 106.7 197.3 160 199.7C213.3 202 266.7 179 320 171C373.3 163 426.7 170 480 180.8C533.3 191.7 586.7 206.3 640 218.2C693.3 230 746.7 239 800 234.3C853.3 229.7 906.7 211.3 933.3 202.2L960 193L960 541L933.3 541C906.7 541 853.3 541 800 541C746.7 541 693.3 541 640 541C586.7 541 533.3 541 480 541C426.7 541 373.3 541 320 541C266.7 541 213.3 541 160 541C106.7 541 53.3 541 26.7 541L0 541Z" fill="#e2e8f0"></path><path d="M0 325L26.7 329.2C53.3 333.3 106.7 341.7 160 348.2C213.3 354.7 266.7 359.3 320 362C373.3 364.7 426.7 365.3 480 373C533.3 380.7 586.7 395.3 640 387.7C693.3 380 746.7 350 800 333.7C853.3 317.3 906.7 314.7 933.3 313.3L960 312L960 541L933.3 541C906.7 541 853.3 541 800 541C746.7 541 693.3 541 640 541C586.7 541 533.3 541 480 541C426.7 541 373.3 541 320 541C266.7 541 213.3 541 160 541C106.7 541 53.3 541 26.7 541L0 541Z" fill="#edf2f7"></path></svg>